# File created by Blade
# Date/Time:  Thu Jan 22 16:31:11 2015
# Frame Rate: 120.000 fps
#------------------------------------------------------
:FULLY-SPECIFIED
:DEGREES
798
root 26.657514 17.659206 -0.741416 2.738126 28.390286 -22.274360
RightUpLeg 14.875198 -6.738702 -35.263633
RightLeg 2.627565 -0.000000 -0.000000
RightFoot -20.349730 -16.496356 40.655556
RightToeBase 18.425487 -0.000000 -0.000000
LeftUpLeg -106.466612 26.418320 3.228748
LeftLeg 133.667166 -0.000000 -0.000000
LeftFoot -36.182184 5.973088 -18.379151
LeftToeBase -12.678577 -0.000000 0.000000
Spine 34.561738 0.542263 -48.286980
RightShoulder -14.632467 5.261907 -44.506445
RightArm 37.185646 70.148556 -10.100099
RightForeArm -2.954148 -0.000000 17.327802
RightHand 14.344498 -0.000000 -44.617177
RightHandThumb1 -24.326973 -0.000000 -32.862282
LeftShoulder -17.633255 43.099954 11.828710
LeftArm 92.742307 -37.449691 -132.723777
LeftForeArm -6.646861 -0.000000 12.547961
LeftHand -28.655368 -0.000000 97.752533
LeftHandThumb1 -26.253704 0.000000 33.147579
Head 6.080900 4.067532 -45.786358
799
root 26.656434 17.654736 -0.745430 2.714368 28.380758 -22.287452
RightUpLeg 14.878071 -6.731889 -35.265869
RightLeg 2.632130 -0.000000 -0.000000
RightFoot -20.348032 -16.471023 40.685560
RightToeBase 18.404347 -0.000000 -0.000000
LeftUpLeg -106.463625 26.423562 3.209333
LeftLeg 133.670355 -0.000000 -0.000000
LeftFoot -36.243545 6.048762 -18.320543
LeftToeBase -12.636258 -0.000000 0.000000
Spine 34.598712 0.543580 -48.242267
RightShoulder -14.661073 5.277530 -44.531762
RightArm 37.312560 70.167766 -9.984272
RightForeArm -3.030763 0.000000 17.327380
RightHand 14.355795 -0.000000 -44.533912
RightHandThumb1 -24.326973 -0.000000 -32.862282
LeftShoulder -17.642057 43.044610 11.797188
LeftArm 92.728173 -37.462548 -132.696475
LeftForeArm -6.671290 -0.000000 12.511906
LeftHand -28.651513 -0.000000 97.753914
LeftHandThumb1 -26.253704 0.000000 33.147579
Head 5.980779 3.878630 -45.863825
800
root 26.655010 17.651141 -0.749314 2.696859 28.370056 -22.299689
RightUpLeg 14.877711 -6.727780 -35.267844
RightLeg 2.631989 -0.000000 -0.000000
RightFoot -20.335835 -16.452137 40.698112
RightToeBase 18.408864 -0.000000 -0.000000
LeftUpLeg -106.463646 26.433872 3.191317
LeftLeg 133.666565 -0.000000 -0.000000
LeftFoot -36.292566 6.113914 -18.243978
LeftToeBase -12.631154 -0.000000 0.000000
Spine 34.621065 0.558269 -48.209237
RightShoulder -14.675240 5.289300 -44.540909
RightArm 37.436217 70.191676 -9.847549
RightForeArm -3.047333 -0.000000 17.380638
RightHand 14.249177 -0.000000 -44.417543
RightHandThumb1 -24.326973 -0.000000 -32.862282
LeftShoulder -17.656531 43.063639 11.780442
LeftArm 92.755236 -37.414676 -132.728071
LeftForeArm -6.649408 -0.000000 12.508793
LeftHand -28.646319 -0.000000 97.759355
LeftHandThumb1 -26.253704 0.000000 33.147579
Head 5.935267 3.816306 -45.864844
801
root 26.654108 17.647207 -0.751444 2.669992 28.360295 -22.320823
RightUpLeg 14.884014 -6.743566 -35.266496
RightLeg 2.630223 -0.000000 -0.000000
RightFoot -20.320351 -16.430326 40.706021
RightToeBase 18.435393 -0.000000 -0.000000
LeftUpLeg -106.459698 26.446232 3.186973
LeftLeg 133.673242 -0.000000 -0.000000
LeftFoot -36.347808 6.165598 -18.206902
LeftToeBase -12.566812 -0.000000 0.000000
Spine 34.644496 0.568567 -48.177347
RightShoulder -14.686929 5.326116 -44.552422
RightArm 37.572925 70.183065 -9.698013
RightForeArm -3.052205 -0.000000 17.414095
RightHand 14.189494 -0.000000 -44.355186
RightHandThumb1 -24.326973 -0.000000 -32.862282
LeftShoulder -17.696423 43.088819 11.749150
LeftArm 92.792187 -37.355009 -132.784010
LeftForeArm -6.612899 -0.000000 12.515757
LeftHand -28.621972 0.000000 97.772757
LeftHandThumb1 -26.253704 0.000000 33.147579
Head 5.907995 3.657273 -45.951649
802
root 26.652026 17.642671 -0.754007 2.644518 28.352296 -22.350358
RightUpLeg 14.886247 -6.748722 -35.253250
RightLeg 2.629502 -0.000000 -0.000000
RightFoot -20.325533 -16.411678 40.751097
RightToeBase 18.431936 -0.000000 -0.000000
LeftUpLeg -106.462738 26.462281 3.195111
LeftLeg 133.684108 -0.000000 -0.000000
LeftFoot -36.390135 6.201872 -18.135493
LeftToeBase -12.526097 -0.000000 0.000000
Spine 34.658182 0.563657 -48.123932
RightShoulder -14.690774 5.318940 -44.560622
RightArm 37.682761 70.205723 -9.607478
RightForeArm -3.078459 -0.000000 17.433743
RightHand 14.049926 -0.000000 -44.297541
RightHandThumb1 -24.326973 -0.000000 -32.862282
LeftShoulder -17.700143 43.095881 11.724380
LeftArm 92.824039 -37.335231 -132.828071
LeftForeArm -6.577172 -0.000000 12.501717
LeftHand -28.641451 0.000000 97.761903
LeftHandThumb1 -26.253704 0.000000 33.147579
Head 5.825123 3.764659 -45.895546
803
root 26.649766 17.638552 -0.755967 2.628785 28.346709 -22.373741
RightUpLeg 14.899214 -6.744172 -35.239841
RightLeg 2.600684 -0.000000 -0.000000
RightFoot -20.307948 -16.412576 40.764121
RightToeBase 18.359156 -0.000000 -0.000000
LeftUpLeg -106.485974 26.471845 3.178454
LeftLeg 133.685479 -0.000000 -0.000000
LeftFoot -36.434532 6.296038 -18.090281
LeftToeBase -12.477749 -0.000000 0.000000
Spine 34.667854 0.548736 -48.092070
RightShoulder -14.678925 5.327143 -44.547344
RightArm 37.686851 70.203604 -9.639266
RightForeArm -3.060197 -0.000000 17.426771
RightHand 14.091442 -0.000000 -44.220103
RightHandThumb1 -24.326973 -0.000000 -32.862282
LeftShoulder -17.725162 43.102701 11.703983
LeftArm 92.841202 -37.311911 -132.880363
LeftForeArm -6.566559 -0.000000 12.499495
LeftHand -28.609871 0.000000 97.748137
LeftHandThumb1 -26.253704 0.000000 33.147579
Head 5.764710 3.766986 -45.890769
